<svg width="40" height="40" viewBox="0 0 40 40" fill="none" xmlns="http://www.w3.org/2000/svg">
<path d="M12.3966 25.0964C12.4349 24.7518 12.454 24.5795 12.5062 24.4185C12.5524 24.2756 12.6178 24.1396 12.7004 24.0143C12.7936 23.873 12.9162 23.7504 13.1614 23.5052L24.1666 12.5C25.0871 11.5795 26.5795 11.5795 27.4999 12.5C28.4204 13.4205 28.4204 14.9129 27.4999 15.8333L16.4947 26.8386C16.2495 27.0837 16.127 27.2063 15.9857 27.2995C15.8603 27.3821 15.7243 27.4475 15.5815 27.4937C15.4204 27.5459 15.2481 27.565 14.9036 27.6033L12.0833 27.9167L12.3966 25.0964Z" stroke="#667085" stroke-width="1.66667" stroke-linecap="round" stroke-linejoin="round"/>
</svg>
