<svg width="44" height="44" viewBox="0 0 44 44" fill="none" xmlns="http://www.w3.org/2000/svg">
<path d="M38.3475 12.27C37.1217 8.59253 34.67 6.14087 30.9925 4.60858V0.0117188H27.9279V4.30212H26.7021C23.3311 4.30212 20.573 5.52795 18.1213 7.97961L16.8955 9.20544L12.6051 7.67316C11.6857 7.3667 10.7663 7.06024 9.5405 7.06024C7.70175 7.06024 5.86301 7.67316 4.33072 8.89899C2.49197 10.1248 1.5726 11.6571 0.959686 13.1894C0.346771 15.3346 0.346771 17.1733 0.959686 19.3185C1.87906 21.4637 2.79843 22.996 4.33072 23.9154C3.10489 28.5123 4.02426 32.4962 7.39529 35.8672C9.84695 38.3189 12.6051 39.5447 15.9761 39.5447C17.5084 39.5447 18.4278 39.5447 19.3471 39.2383C21.1859 41.6899 23.6375 43.2222 26.7021 43.2222C27.6215 43.2222 28.8473 43.2222 29.7667 42.9158C31.6054 42.3028 32.8313 41.077 34.0571 39.5447C35.2829 37.706 35.8958 36.1737 35.8958 34.335C35.8958 33.1091 35.8958 32.1898 35.5894 31.2704L34.0571 26.3671L35.8958 25.1412C38.3475 22.6896 39.5733 19.3185 39.2669 15.6411H43.2508V12.27H38.3475ZM8.62112 19.3185C6.78238 18.3992 6.16946 17.1733 6.78238 15.3346C7.39529 13.4958 8.62112 12.8829 10.4599 13.4958L20.2665 17.1733C15.3632 19.625 11.6857 20.2379 8.62112 19.3185ZM27.9279 36.4802C26.0892 37.0931 24.8634 36.4802 23.944 34.6414C23.0246 31.5768 23.6375 27.8993 26.0892 22.996L29.7667 32.4962C30.3796 34.6414 29.7667 35.8672 27.9279 36.4802ZM31.6054 20.2379L29.7667 15.3346V15.0281L28.8473 14.1088H28.5409L23.6375 12.27C24.8634 11.3506 26.0892 10.7377 27.6215 10.7377C29.1538 10.7377 30.6861 11.3506 31.9119 12.5765C33.1377 13.8023 33.7506 15.0281 33.7506 16.5604C33.1377 17.4798 32.5248 19.0121 31.6054 20.2379Z" fill="#F1C963"/>
<rect x="4.98022" y="32.164" width="6.72202" height="6.72202" transform="rotate(-0.486512 4.98022 32.164)" fill="#F1C963"/>
</svg>
