<svg width="20" height="21" viewBox="0 0 20 21" fill="none" xmlns="http://www.w3.org/2000/svg">
<path d="M14 7.00001V3.50067C14 2.66893 14 2.25306 13.8248 1.99748C13.6717 1.77419 13.4346 1.62251 13.1678 1.57709C12.8623 1.52511 12.4847 1.69938 11.7295 2.04793L2.85901 6.142C2.18551 6.45285 1.84875 6.60828 1.60211 6.84933C1.38406 7.06243 1.21762 7.32256 1.1155 7.60984C1 7.9348 1 8.30569 1 9.04747V14M14.5 13.5H14.51M1 10.2L1 16.8C1 17.9201 1 18.4802 1.21799 18.908C1.40973 19.2843 1.71569 19.5903 2.09202 19.782C2.51984 20 3.07989 20 4.2 20H15.8C16.9201 20 17.4802 20 17.908 19.782C18.2843 19.5903 18.5903 19.2843 18.782 18.908C19 18.4802 19 17.9201 19 16.8V10.2C19 9.07991 19 8.51985 18.782 8.09203C18.5903 7.71571 18.2843 7.40975 17.908 7.218C17.4802 7.00001 16.9201 7.00001 15.8 7.00001L4.2 7.00001C3.0799 7.00001 2.51984 7.00001 2.09202 7.218C1.7157 7.40974 1.40973 7.71571 1.21799 8.09203C1 8.51985 1 9.07991 1 10.2ZM15 13.5C15 13.7762 14.7761 14 14.5 14C14.2239 14 14 13.7762 14 13.5C14 13.2239 14.2239 13 14.5 13C14.7761 13 15 13.2239 15 13.5Z" stroke="#98A2B3" stroke-width="2" stroke-linecap="round" stroke-linejoin="round"/>
</svg>
