<svg width="42" height="42" viewBox="0 0 42 42" fill="none" xmlns="http://www.w3.org/2000/svg">
<rect x="1" y="1" width="40" height="40" rx="8" stroke="#6366F1"/>
<path d="M13.0168 21.5943C12.9033 21.4146 12.8465 21.3248 12.8148 21.1862C12.7909 21.0821 12.7909 20.9179 12.8148 20.8138C12.8465 20.6752 12.9033 20.5854 13.0168 20.4057C13.9546 18.9207 16.7462 15.1667 21.0003 15.1667C25.2545 15.1667 28.0461 18.9207 28.9839 20.4057C29.0974 20.5854 29.1541 20.6752 29.1859 20.8138C29.2098 20.9179 29.2098 21.0821 29.1859 21.1862C29.1541 21.3248 29.0974 21.4146 28.9839 21.5943C28.0461 23.0793 25.2545 26.8333 21.0003 26.8333C16.7462 26.8333 13.9546 23.0793 13.0168 21.5943Z" stroke="#6366F1" stroke-width="1.66667" stroke-linecap="round" stroke-linejoin="round"/>
<path d="M21.0003 23.5C22.381 23.5 23.5003 22.3807 23.5003 21C23.5003 19.6193 22.381 18.5 21.0003 18.5C19.6196 18.5 18.5003 19.6193 18.5003 21C18.5003 22.3807 19.6196 23.5 21.0003 23.5Z" stroke="#6366F1" stroke-width="1.66667" stroke-linecap="round" stroke-linejoin="round"/>
</svg>
